<svg width="24" height="25" viewBox="0 0 24 25" fill="none" xmlns="http://www.w3.org/2000/svg">
<g clip-path="url(#clip0_526_267)">
<path d="M20.317 4.92173C18.761 4.20749 17.119 3.69818 15.4319 3.40653C15.4166 3.40367 15.4007 3.40572 15.3867 3.41238C15.3726 3.41904 15.3609 3.42998 15.3534 3.44363C15.1424 3.81893 14.9087 4.30843 14.7451 4.69313C12.9004 4.41693 11.0651 4.41693 9.2583 4.69313C9.0947 4.29983 8.8525 3.81893 8.6406 3.44363C8.63276 3.43029 8.62107 3.41962 8.60706 3.41302C8.59306 3.40642 8.57739 3.40419 8.5621 3.40663C6.87488 3.6976 5.2327 4.20687 3.6769 4.92163C3.66359 4.92732 3.65238 4.937 3.6448 4.94933C0.533404 9.59773 -0.318996 14.1318 0.099204 18.6097C0.100386 18.6207 0.103757 18.6313 0.109116 18.6409C0.114476 18.6506 0.121714 18.659 0.130404 18.6658C2.1832 20.1734 4.1717 21.0886 6.1233 21.6952C6.13848 21.6998 6.15468 21.6995 6.16972 21.6946C6.18477 21.6897 6.19795 21.6803 6.2075 21.6676C6.6691 21.0372 7.0806 20.3724 7.4335 19.6734C7.43835 19.6639 7.44112 19.6534 7.44163 19.6427C7.44213 19.6319 7.44036 19.6212 7.43643 19.6112C7.4325 19.6013 7.4265 19.5922 7.41883 19.5847C7.41115 19.5772 7.40198 19.5714 7.3919 19.5677C6.7391 19.3201 6.1176 19.0182 5.5197 18.6754C5.5088 18.669 5.49964 18.66 5.49304 18.6493C5.48643 18.6385 5.48258 18.6262 5.48183 18.6136C5.48108 18.601 5.48345 18.5884 5.48873 18.5769C5.49401 18.5654 5.50204 18.5554 5.5121 18.5477C5.6379 18.4534 5.7638 18.3554 5.8839 18.2563C5.89458 18.2475 5.9075 18.2419 5.92121 18.24C5.93492 18.2382 5.94887 18.2402 5.9615 18.2458C9.8893 20.0391 14.1415 20.0391 18.0229 18.2458C18.0355 18.2398 18.0496 18.2375 18.0635 18.2392C18.0774 18.2409 18.0906 18.2465 18.1014 18.2553C18.2216 18.3543 18.3474 18.4534 18.4742 18.5477C18.4843 18.5553 18.4924 18.5652 18.4977 18.5767C18.5031 18.5881 18.5055 18.6007 18.5049 18.6133C18.5042 18.6259 18.5005 18.6381 18.494 18.649C18.4875 18.6598 18.4784 18.6688 18.4676 18.6753C17.8695 19.0247 17.2429 19.3229 16.5946 19.5667C16.5845 19.5706 16.5754 19.5765 16.5678 19.5841C16.5602 19.5918 16.5542 19.6009 16.5504 19.611C16.5466 19.621 16.5449 19.6318 16.5455 19.6426C16.5461 19.6533 16.549 19.6639 16.5539 19.6734C16.9143 20.3714 17.3258 21.0362 17.7789 21.6666C17.7882 21.6796 17.8013 21.6894 17.8164 21.6945C17.8315 21.6997 17.8478 21.6999 17.8631 21.6952C19.8241 21.0885 21.8126 20.1733 23.8654 18.6658C23.8742 18.6594 23.8816 18.6511 23.887 18.6416C23.8924 18.6321 23.8957 18.6215 23.8967 18.6106C24.3971 13.4336 23.0585 8.93673 20.3482 4.95023C20.3416 4.93728 20.3305 4.92713 20.317 4.92163V4.92173ZM8.02 15.8831C6.8375 15.8831 5.8631 14.7974 5.8631 13.4641C5.8631 12.1309 6.8186 11.0452 8.0201 11.0452C9.2309 11.0452 10.1958 12.1404 10.1769 13.4642C10.1769 14.7974 9.2214 15.8831 8.02 15.8831ZM15.9948 15.8831C14.8123 15.8831 13.8379 14.7974 13.8379 13.4641C13.8379 12.1309 14.7933 11.0452 15.9948 11.0452C17.2056 11.0452 18.1705 12.1404 18.1516 13.4642C18.1516 14.7974 17.2056 15.8831 15.9948 15.8831Z" fill="url(#paint0_linear_526_267)"/>
</g>
<defs>
<linearGradient id="paint0_linear_526_267" x1="29.535" y1="12.776" x2="1.23615" y2="12.776" gradientUnits="userSpaceOnUse">
<stop stop-color="#5AADFF"/>
<stop offset="1" stop-color="#CA94FF"/>
</linearGradient>
<clipPath id="clip0_526_267">
<rect width="24" height="24" fill="white" transform="translate(0 0.551758)"/>
</clipPath>
</defs>
</svg>
