<svg width="25" height="25" viewBox="0 0 25 25" fill="none" xmlns="http://www.w3.org/2000/svg">
<g clip-path="url(#clip0_526_283)">
<path d="M20.9186 5.15244C19.3626 4.43821 17.7205 3.92889 16.0335 3.63724C16.0181 3.63438 16.0023 3.63643 15.9882 3.64309C15.9741 3.64975 15.9625 3.66069 15.955 3.67434C15.744 4.04964 15.5103 4.53914 15.3467 4.92384C13.502 4.64764 11.6667 4.64764 9.85987 4.92384C9.69627 4.53054 9.45407 4.04964 9.24217 3.67434C9.23432 3.661 9.22263 3.65033 9.20862 3.64373C9.19462 3.63713 9.17895 3.6349 9.16367 3.63734C7.47645 3.92831 5.83426 4.43759 4.27847 5.15234C4.26516 5.15803 4.25394 5.16771 4.24637 5.18004C1.13497 9.82844 0.282566 14.3625 0.700766 18.8404C0.701949 18.8514 0.70532 18.862 0.710679 18.8717C0.716038 18.8813 0.723277 18.8898 0.731966 18.8965C2.78477 20.4041 4.77327 21.3193 6.72487 21.9259C6.74004 21.9305 6.75624 21.9303 6.77129 21.9253C6.78633 21.9204 6.79952 21.911 6.80907 21.8983C7.27067 21.2679 7.68217 20.6031 8.03507 19.9041C8.03992 19.8946 8.04269 19.8841 8.04319 19.8734C8.0437 19.8626 8.04192 19.8519 8.03799 19.842C8.03407 19.832 8.02807 19.8229 8.02039 19.8154C8.01272 19.8079 8.00354 19.8021 7.99347 19.7984C7.34067 19.5508 6.71917 19.2489 6.12127 18.9061C6.11036 18.8997 6.1012 18.8907 6.0946 18.88C6.08799 18.8692 6.08415 18.8569 6.0834 18.8443C6.08264 18.8317 6.08501 18.8191 6.09029 18.8076C6.09557 18.7961 6.1036 18.7861 6.11367 18.7784C6.23947 18.6841 6.36537 18.5861 6.48547 18.487C6.49614 18.4782 6.50906 18.4726 6.52277 18.4707C6.53648 18.4689 6.55044 18.4709 6.56307 18.4765C10.4909 20.2698 14.7431 20.2698 18.6245 18.4765C18.6371 18.4705 18.6512 18.4682 18.6651 18.4699C18.679 18.4716 18.6921 18.4772 18.703 18.486C18.8232 18.585 18.949 18.6841 19.0758 18.7784C19.0859 18.786 19.0939 18.796 19.0993 18.8074C19.1046 18.8188 19.1071 18.8314 19.1064 18.844C19.1058 18.8566 19.102 18.8689 19.0955 18.8797C19.089 18.8905 19.08 18.8995 19.0692 18.906C18.471 19.2554 17.8445 19.5536 17.1962 19.7974C17.1861 19.8013 17.177 19.8072 17.1693 19.8148C17.1617 19.8225 17.1558 19.8316 17.152 19.8417C17.1481 19.8518 17.1464 19.8625 17.147 19.8733C17.1476 19.8841 17.1505 19.8946 17.1555 19.9041C17.5159 20.6021 17.9274 21.2669 18.3805 21.8973C18.3897 21.9103 18.4028 21.9201 18.4179 21.9252C18.4331 21.9304 18.4494 21.9306 18.4647 21.9259C20.4257 21.3192 22.4142 20.404 24.467 18.8965C24.4758 18.8901 24.4832 18.8818 24.4886 18.8723C24.494 18.8628 24.4973 18.8522 24.4983 18.8413C24.9987 13.6643 23.6601 9.16744 20.9498 5.18094C20.9431 5.16799 20.932 5.15785 20.9186 5.15234V5.15244ZM8.62157 16.1138C7.43907 16.1138 6.46467 15.0281 6.46467 13.6948C6.46467 12.3616 7.42017 11.2759 8.62167 11.2759C9.83247 11.2759 10.7974 12.3711 10.7785 13.6949C10.7785 15.0281 9.82297 16.1138 8.62157 16.1138ZM16.5964 16.1138C15.4139 16.1138 14.4395 15.0281 14.4395 13.6948C14.4395 12.3616 15.3949 11.2759 16.5964 11.2759C17.8072 11.2759 18.7721 12.3711 18.7532 13.6949C18.7532 15.0281 17.8072 16.1138 16.5964 16.1138Z" fill="black"/>
</g>
<defs>
<clipPath id="clip0_526_283">
<rect width="24" height="24" fill="white" transform="translate(0.601562 0.782715)"/>
</clipPath>
</defs>
</svg>
