<svg width="25" height="24" viewBox="0 0 25 24" fill="none" xmlns="http://www.w3.org/2000/svg">
<g clip-path="url(#clip0_526_289)">
<path d="M23.9686 4.57009C23.0701 4.96569 22.1182 5.22683 21.1436 5.34509C22.1697 4.72834 22.938 3.76113 23.3066 2.62209C22.3556 3.17709 21.3016 3.58109 20.1796 3.80609C19.4394 3.01452 18.4585 2.48951 17.3893 2.31259C16.32 2.13567 15.2223 2.31674 14.2666 2.82768C13.3108 3.33862 12.5505 4.15084 12.1037 5.13821C11.6569 6.12558 11.5486 7.23286 11.7956 8.28809C7.70562 8.09509 4.08262 6.13009 1.65562 3.16209C1.21442 3.9119 0.984289 4.76711 0.989625 5.63709C0.989625 7.34709 1.85962 8.85009 3.17762 9.73309C2.39648 9.70822 1.6326 9.49702 0.949625 9.11709V9.17709C0.949182 10.3135 1.34189 11.415 2.06113 12.2948C2.78037 13.1747 3.78184 13.7786 4.89563 14.0041C4.17392 14.1975 3.41804 14.2265 2.68362 14.0891C2.99975 15.0671 3.61329 15.922 4.43864 16.5346C5.26399 17.1471 6.25998 17.4868 7.28762 17.5061C5.54715 18.872 3.3981 19.6134 1.18562 19.6111C0.795625 19.6111 0.406625 19.5881 0.015625 19.5441C2.27133 20.9884 4.89414 21.7551 7.57263 21.7531C16.6256 21.7531 21.5706 14.2571 21.5706 7.76809C21.5706 7.55809 21.5706 7.34809 21.5556 7.13809C22.5216 6.44295 23.3549 5.57991 24.0156 4.59009L23.9686 4.57009Z" fill="black"/>
</g>
<defs>
<clipPath id="clip0_526_289">
<rect width="24" height="24" fill="white" transform="translate(0.015625)"/>
</clipPath>
</defs>
</svg>
