<svg width="25" height="25" viewBox="0 0 25 25" fill="none" xmlns="http://www.w3.org/2000/svg">
<g clip-path="url(#clip0_526_264)">
<path d="M24.2147 5.12185C23.3162 5.51745 22.3643 5.77858 21.3897 5.89684C22.4158 5.2801 23.1841 4.31289 23.5527 3.17384C22.6017 3.72885 21.5477 4.13284 20.4257 4.35784C19.6855 3.56627 18.7046 3.04127 17.6354 2.86435C16.5661 2.68743 15.4684 2.8685 14.5127 3.37944C13.5569 3.89038 12.7966 4.7026 12.3498 5.68997C11.903 6.67734 11.7947 7.78461 12.0417 8.83985C7.95172 8.64685 4.32872 6.68184 1.90172 3.71384C1.46051 4.46366 1.23038 5.31887 1.23572 6.18885C1.23572 7.89885 2.10572 9.40184 3.42372 10.2848C2.64258 10.26 1.87869 10.0488 1.19572 9.66884V9.72885C1.19528 10.8652 1.58799 11.9668 2.30723 12.8466C3.02646 13.7264 4.02793 14.3303 5.14172 14.5558C4.42002 14.7492 3.66413 14.7783 2.92972 14.6408C3.24584 15.6189 3.85938 16.4738 4.68473 17.0863C5.51008 17.6989 6.50607 18.0385 7.53372 18.0578C5.79325 19.4238 3.6442 20.1651 1.43172 20.1628C1.04172 20.1628 0.652719 20.1398 0.261719 20.0958C2.51743 21.5402 5.14023 22.3068 7.81872 22.3048C16.8717 22.3048 21.8167 14.8088 21.8167 8.31985C21.8167 8.10985 21.8167 7.89985 21.8017 7.68985C22.7677 6.99471 23.6009 6.13166 24.2617 5.14185L24.2147 5.12185Z" fill="url(#paint0_linear_526_264)"/>
</g>
<defs>
<linearGradient id="paint0_linear_526_264" x1="29.7967" y1="12.7905" x2="1.49787" y2="12.7905" gradientUnits="userSpaceOnUse">
<stop stop-color="#5AADFF"/>
<stop offset="1" stop-color="#CA94FF"/>
</linearGradient>
<clipPath id="clip0_526_264">
<rect width="24" height="24" fill="white" transform="translate(0.261719 0.551758)"/>
</clipPath>
</defs>
</svg>
